<?xml version="1.0" encoding="UTF-8"?>
<svg xmlns="http://www.w3.org/2000/svg" viewBox="0 0 1920 800" width="1920" height="800">
<title>Quality Comparison: Traditional vs RPI</title>
<defs>
  <marker id="ah-blue" markerWidth="10" markerHeight="7" refX="9" refY="3.5" orient="auto"><polygon points="0 0,10 3.5,0 7" fill="#0078D4"/></marker>
  <marker id="ah-green" markerWidth="10" markerHeight="7" refX="9" refY="3.5" orient="auto"><polygon points="0 0,10 3.5,0 7" fill="#107C10"/></marker>
  <marker id="ah-orange" markerWidth="10" markerHeight="7" refX="9" refY="3.5" orient="auto"><polygon points="0 0,10 3.5,0 7" fill="#FF8C00"/></marker>
  <marker id="ah-red" markerWidth="10" markerHeight="7" refX="9" refY="3.5" orient="auto"><polygon points="0 0,10 3.5,0 7" fill="#D13438"/></marker>
  <marker id="ah-purple" markerWidth="10" markerHeight="7" refX="9" refY="3.5" orient="auto"><polygon points="0 0,10 3.5,0 7" fill="#8864D8"/></marker>
  <marker id="ah-teal" markerWidth="10" markerHeight="7" refX="9" refY="3.5" orient="auto"><polygon points="0 0,10 3.5,0 7" fill="#038E8E"/></marker>
  <marker id="ah-white" markerWidth="10" markerHeight="7" refX="9" refY="3.5" orient="auto"><polygon points="0 0,10 3.5,0 7" fill="#E0E0E0"/></marker>
  <style>
    text { font-family: 'Segoe UI', Arial, sans-serif; }
    .title { font-size: 22px; font-weight: bold; fill: #FFFFFF; }
    .subtitle { font-size: 14px; fill: #E0E0E0; }
    .zone-label { font-size: 15px; font-weight: bold; }
    .node-title { font-size: 12px; font-weight: bold; fill: #FFFFFF; }
    .node-detail { font-size: 11px; fill: #E0E0E0; }
    .node-small { font-size: 10px; fill: #909090; }
    .badge-text { font-size: 10px; font-weight: bold; fill: #FFFFFF; }
    .type-label { font-size: 11px; font-style: italic; fill: #E0E0E0; }
  </style>
</defs>
<rect width="1920" height="800" fill="#1B1B1B" rx="8"/>
<text x="960" y="40" text-anchor="middle" font-size="24" fill="#FFFFFF" font-family="'Segoe UI', sans-serif">Quality Comparison: Traditional vs RPI</text>
<text x="960" y="65" text-anchor="middle" font-size="14" fill="#E0E0E0" font-family="'Segoe UI', sans-serif">Side-by-side evaluation across five quality dimensions</text>
<rect x="110" y="100" width="820" height="650" rx="12" fill="#2D1A1A" stroke="#D13438" stroke-width="2"/>
<text x="122" y="122" class="zone-label" fill="#D13438">Traditional AI Coding</text>
<rect x="990" y="100" width="820" height="650" rx="12" fill="#1A2D1A" stroke="#107C10" stroke-width="2"/>
<text x="1002" y="122" class="zone-label" fill="#107C10">RPI Framework</text>
<text x="960" y="170" text-anchor="middle" font-size="14" fill="#FFFFFF" font-family="'Segoe UI', sans-serif">Knowledge Acquisition</text>
<rect x="130" y="180" width="780" height="75" rx="8" fill="#1B1B1B" stroke="#D13438" stroke-width="1.5"/>
<text x="520" y="210" text-anchor="middle" font-size="16" fill="#D13438" font-family="'Segoe UI', sans-serif">Pattern Matching</text>
<text x="520" y="233" text-anchor="middle" font-size="11" fill="#909090" font-family="'Segoe UI', sans-serif">Relies on pre-trained patterns; no active research</text>
<rect x="850" y="190" width="50" height="20" rx="4" fill="#D13438"/>
<text x="875" y="204" text-anchor="middle" font-size="11" fill="#FFFFFF" font-family="'Segoe UI', sans-serif">✗</text>
<rect x="1010" y="180" width="780" height="75" rx="8" fill="#1B1B1B" stroke="#107C10" stroke-width="1.5"/>
<text x="1400" y="210" text-anchor="middle" font-size="16" fill="#107C10" font-family="'Segoe UI', sans-serif">Research-Grounded</text>
<text x="1400" y="233" text-anchor="middle" font-size="11" fill="#909090" font-family="'Segoe UI', sans-serif">Dedicated research phase gathers domain context</text>
<rect x="1730" y="190" width="50" height="20" rx="4" fill="#107C10"/>
<text x="1755" y="204" text-anchor="middle" font-size="11" fill="#FFFFFF" font-family="'Segoe UI', sans-serif">✓</text>
<text x="960" y="290" text-anchor="middle" font-size="14" fill="#FFFFFF" font-family="'Segoe UI', sans-serif">Traceability</text>
<rect x="130" y="300" width="780" height="75" rx="8" fill="#1B1B1B" stroke="#D13438" stroke-width="1.5"/>
<text x="520" y="330" text-anchor="middle" font-size="16" fill="#D13438" font-family="'Segoe UI', sans-serif">None / Lost</text>
<text x="520" y="353" text-anchor="middle" font-size="11" fill="#909090" font-family="'Segoe UI', sans-serif">No artifact chain; decisions untraceable</text>
<rect x="850" y="310" width="50" height="20" rx="4" fill="#D13438"/>
<text x="875" y="324" text-anchor="middle" font-size="11" fill="#FFFFFF" font-family="'Segoe UI', sans-serif">✗</text>
<rect x="1010" y="300" width="780" height="75" rx="8" fill="#1B1B1B" stroke="#107C10" stroke-width="1.5"/>
<text x="1400" y="330" text-anchor="middle" font-size="16" fill="#107C10" font-family="'Segoe UI', sans-serif">Full Traceability</text>
<text x="1400" y="353" text-anchor="middle" font-size="11" fill="#909090" font-family="'Segoe UI', sans-serif">Research → Plan → Code → Review artifact chain</text>
<rect x="1730" y="310" width="50" height="20" rx="4" fill="#107C10"/>
<text x="1755" y="324" text-anchor="middle" font-size="11" fill="#FFFFFF" font-family="'Segoe UI', sans-serif">✓</text>
<text x="960" y="410" text-anchor="middle" font-size="14" fill="#FFFFFF" font-family="'Segoe UI', sans-serif">Knowledge Transfer</text>
<rect x="130" y="420" width="780" height="75" rx="8" fill="#1B1B1B" stroke="#D13438" stroke-width="1.5"/>
<text x="520" y="450" text-anchor="middle" font-size="16" fill="#D13438" font-family="'Segoe UI', sans-serif">Prompt-Dependent</text>
<text x="520" y="473" text-anchor="middle" font-size="11" fill="#909090" font-family="'Segoe UI', sans-serif">Knowledge lives in prompts; lost on context change</text>
<rect x="850" y="430" width="50" height="20" rx="4" fill="#D13438"/>
<text x="875" y="444" text-anchor="middle" font-size="11" fill="#FFFFFF" font-family="'Segoe UI', sans-serif">✗</text>
<rect x="1010" y="420" width="780" height="75" rx="8" fill="#1B1B1B" stroke="#107C10" stroke-width="1.5"/>
<text x="1400" y="450" text-anchor="middle" font-size="16" fill="#107C10" font-family="'Segoe UI', sans-serif">Artifact-Based Knowledge</text>
<text x="1400" y="473" text-anchor="middle" font-size="11" fill="#909090" font-family="'Segoe UI', sans-serif">Durable markdown artifacts persist across sessions</text>
<rect x="1730" y="430" width="50" height="20" rx="4" fill="#107C10"/>
<text x="1755" y="444" text-anchor="middle" font-size="11" fill="#FFFFFF" font-family="'Segoe UI', sans-serif">✓</text>
<text x="960" y="530" text-anchor="middle" font-size="14" fill="#FFFFFF" font-family="'Segoe UI', sans-serif">Rework Rate</text>
<rect x="130" y="540" width="780" height="75" rx="8" fill="#1B1B1B" stroke="#D13438" stroke-width="1.5"/>
<text x="520" y="570" text-anchor="middle" font-size="16" fill="#D13438" font-family="'Segoe UI', sans-serif">Common</text>
<text x="520" y="593" text-anchor="middle" font-size="11" fill="#909090" font-family="'Segoe UI', sans-serif">Frequent rework from misunderstood requirements</text>
<rect x="850" y="550" width="50" height="20" rx="4" fill="#D13438"/>
<text x="875" y="564" text-anchor="middle" font-size="11" fill="#FFFFFF" font-family="'Segoe UI', sans-serif">✗</text>
<rect x="1010" y="540" width="780" height="75" rx="8" fill="#1B1B1B" stroke="#107C10" stroke-width="1.5"/>
<text x="1400" y="570" text-anchor="middle" font-size="16" fill="#107C10" font-family="'Segoe UI', sans-serif">Rare</text>
<text x="1400" y="593" text-anchor="middle" font-size="11" fill="#909090" font-family="'Segoe UI', sans-serif">Research and planning prevent downstream rework</text>
<rect x="1730" y="550" width="50" height="20" rx="4" fill="#107C10"/>
<text x="1755" y="564" text-anchor="middle" font-size="11" fill="#FFFFFF" font-family="'Segoe UI', sans-serif">✓</text>
<text x="960" y="650" text-anchor="middle" font-size="14" fill="#FFFFFF" font-family="'Segoe UI', sans-serif">Validation</text>
<rect x="130" y="660" width="780" height="75" rx="8" fill="#1B1B1B" stroke="#D13438" stroke-width="1.5"/>
<text x="520" y="690" text-anchor="middle" font-size="16" fill="#D13438" font-family="'Segoe UI', sans-serif">Ad Hoc</text>
<text x="520" y="713" text-anchor="middle" font-size="11" fill="#909090" font-family="'Segoe UI', sans-serif">No systematic review; quality varies by prompt</text>
<rect x="850" y="670" width="50" height="20" rx="4" fill="#D13438"/>
<text x="875" y="684" text-anchor="middle" font-size="11" fill="#FFFFFF" font-family="'Segoe UI', sans-serif">✗</text>
<rect x="1010" y="660" width="780" height="75" rx="8" fill="#1B1B1B" stroke="#107C10" stroke-width="1.5"/>
<text x="1400" y="690" text-anchor="middle" font-size="16" fill="#107C10" font-family="'Segoe UI', sans-serif">Systematic Validation</text>
<text x="1400" y="713" text-anchor="middle" font-size="11" fill="#909090" font-family="'Segoe UI', sans-serif">Dedicated review phase with structured criteria</text>
<rect x="1730" y="670" width="50" height="20" rx="4" fill="#107C10"/>
<text x="1755" y="684" text-anchor="middle" font-size="11" fill="#FFFFFF" font-family="'Segoe UI', sans-serif">✓</text>
</svg>
